<?xml version="1.0" encoding="UTF-8"?>
<svg width="130px" height="130px" viewBox="0 0 130 130" version="1.1" xmlns="http://www.w3.org/2000/svg" xmlns:xlink="http://www.w3.org/1999/xlink">
    <!-- Generator: Sketch 46 (44423) - http://www.bohemiancoding.com/sketch -->
    <title>avatar</title>
    <desc>Created with Sketch.</desc>
    <defs>
        <circle id="path-1" cx="65" cy="65" r="65"></circle>
    </defs>
    <g id="MAIN" stroke="none" stroke-width="1" fill="none" fill-rule="evenodd">
        <g id="02" transform="translate(-1007.000000, -307.000000)">
            <g id="Group-2" transform="translate(855.000000, 158.000000)">
                <g id="-g-avatar" transform="translate(152.000000, 149.000000)">
                    <g id="avatar">
                        <mask id="mask-2" fill="white">
                            <use xlink:href="#path-1"></use>
                        </mask>
                        <use id="Oval-2" fill="#FFE6ED" xlink:href="#path-1"></use>
                        <path d="M133.211208,126.832087 C129.073022,120.372264 115.160919,116.358135 101.399457,110.624931 C87.629134,104.882865 84.3682081,102.897954 84.3682081,102.897954 L84.2441511,89.6947482 C84.2441511,89.6947482 89.4013764,85.7249253 90.9963945,73.3015062 C94.2218756,74.2319335 97.6068586,68.4898682 97.792944,65.4593337 C97.9701682,62.543995 97.3498834,54.4537086 93.4155054,55.2689401 C94.2130144,49.1724264 94.7978544,43.6961974 94.5142956,40.7985812 C93.4952563,30.1917106 83.0478875,19 66.9825104,19 C50.9259945,19 40.4786257,30.1917106 39.4507252,40.7985812 C39.1671664,43.6961974 39.7520064,49.1724264 40.5495154,55.2689401 C36.6239986,54.4537086 35.9948525,62.543995 36.1720768,65.4593337 C36.3581622,68.4898682 39.7431452,74.2319335 42.9686263,73.3015062 C44.5725056,85.7249253 49.7297309,89.6947482 49.7297309,89.6947482 L49.5968127,102.897954 C49.5968127,102.897954 46.3358868,104.882865 32.5744248,110.624931 C18.8041016,116.358135 4.90086015,120.372264 0.753813006,126.832087 C-2.95903476,132.609597 -1.84252207,160.407219 -1.84252207,160.407219 L135.807543,160.407219 C135.807543,160.407219 136.924056,132.609597 133.211208,126.832087" id="Fill-1" fill="#FCFCFC" mask="url(#mask-2)"></path>
                    </g>
                </g>
            </g>
        </g>
    </g>
</svg>